<mxfile host="drawio-plugin" modified="2024-06-24T04:41:42.056Z" agent="Mozilla/5.0 (Windows NT 10.0; Win64; x64) AppleWebKit/537.36 (KHTML, like Gecko) Chrome/122.0.0.0 Safari/537.36" etag="66F91vy9d8uLhtsMn3dC" version="22.1.22" type="embed">
  <diagram name="페이지-1" id="VALJ2n9ej81TU3JlVOe0">
    <mxGraphModel dx="625" dy="530" grid="1" gridSize="10" guides="1" tooltips="1" connect="1" arrows="1" fold="1" page="1" pageScale="1" pageWidth="827" pageHeight="1169" math="0" shadow="0">
      <root>
        <mxCell id="0" />
        <mxCell id="1" parent="0" />
        <mxCell id="sn0zGG2LwJoGhGM5-Vj4-3" style="edgeStyle=orthogonalEdgeStyle;rounded=0;orthogonalLoop=1;jettySize=auto;html=1;" parent="1" source="sn0zGG2LwJoGhGM5-Vj4-1" target="sn0zGG2LwJoGhGM5-Vj4-2" edge="1">
          <mxGeometry relative="1" as="geometry" />
        </mxCell>
        <mxCell id="sn0zGG2LwJoGhGM5-Vj4-1" value="ExecuteEnhance()" style="rounded=0;whiteSpace=wrap;html=1;" parent="1" vertex="1">
          <mxGeometry x="119" y="160" width="160" height="80" as="geometry" />
        </mxCell>
        <mxCell id="sn0zGG2LwJoGhGM5-Vj4-2" value="&lt;div style=&quot;&quot;&gt;&lt;pre style=&quot;&quot;&gt;&lt;div style=&quot;&quot;&gt;&lt;pre style=&quot;&quot;&gt;&lt;font face=&quot;Helvetica&quot;&gt;&lt;span style=&quot;white-space: normal;&quot;&gt;ScrollAmountInit()&lt;/span&gt;&lt;/font&gt;&lt;/pre&gt;&lt;/div&gt;&lt;/pre&gt;&lt;/div&gt;" style="rounded=0;whiteSpace=wrap;html=1;fillColor=default;labelBackgroundColor=none;" parent="1" vertex="1">
          <mxGeometry x="119" y="280" width="160" height="80" as="geometry" />
        </mxCell>
        <mxCell id="sn0zGG2LwJoGhGM5-Vj4-4" value="&lt;div style=&quot;&quot;&gt;&lt;pre style=&quot;&quot;&gt;&lt;div style=&quot;&quot;&gt;&lt;pre style=&quot;&quot;&gt;&lt;font face=&quot;Helvetica&quot;&gt;&lt;span style=&quot;white-space: normal;&quot;&gt;valid()&lt;/span&gt;&lt;/font&gt;&lt;/pre&gt;&lt;/div&gt;&lt;/pre&gt;&lt;/div&gt;" style="rounded=0;whiteSpace=wrap;html=1;labelBackgroundColor=none;" parent="1" vertex="1">
          <mxGeometry x="119" y="400" width="160" height="80" as="geometry" />
        </mxCell>
        <mxCell id="sn0zGG2LwJoGhGM5-Vj4-5" style="edgeStyle=orthogonalEdgeStyle;rounded=0;orthogonalLoop=1;jettySize=auto;html=1;exitX=0.5;exitY=1;exitDx=0;exitDy=0;entryX=0.5;entryY=0;entryDx=0;entryDy=0;" parent="1" source="sn0zGG2LwJoGhGM5-Vj4-2" target="sn0zGG2LwJoGhGM5-Vj4-4" edge="1">
          <mxGeometry relative="1" as="geometry">
            <mxPoint x="214" y="230" as="sourcePoint" />
            <mxPoint x="214" y="290" as="targetPoint" />
          </mxGeometry>
        </mxCell>
        <mxCell id="sn0zGG2LwJoGhGM5-Vj4-7" style="edgeStyle=orthogonalEdgeStyle;rounded=0;orthogonalLoop=1;jettySize=auto;html=1;entryX=0.5;entryY=0;entryDx=0;entryDy=0;" parent="1" source="sn0zGG2LwJoGhGM5-Vj4-4" target="sn0zGG2LwJoGhGM5-Vj4-9" edge="1">
          <mxGeometry relative="1" as="geometry">
            <mxPoint x="204" y="348" as="sourcePoint" />
            <mxPoint x="199" y="397" as="targetPoint" />
          </mxGeometry>
        </mxCell>
        <mxCell id="sn0zGG2LwJoGhGM5-Vj4-12" style="edgeStyle=orthogonalEdgeStyle;rounded=0;orthogonalLoop=1;jettySize=auto;html=1;entryX=0.5;entryY=0;entryDx=0;entryDy=0;" parent="1" source="sn0zGG2LwJoGhGM5-Vj4-9" target="sn0zGG2LwJoGhGM5-Vj4-11" edge="1">
          <mxGeometry relative="1" as="geometry" />
        </mxCell>
        <mxCell id="sn0zGG2LwJoGhGM5-Vj4-13" value="&lt;font style=&quot;font-size: 15px;&quot;&gt;Yes&lt;/font&gt;" style="edgeLabel;html=1;align=center;verticalAlign=middle;resizable=0;points=[];" parent="sn0zGG2LwJoGhGM5-Vj4-12" vertex="1" connectable="0">
          <mxGeometry x="-0.2828" y="2" relative="1" as="geometry">
            <mxPoint x="18" as="offset" />
          </mxGeometry>
        </mxCell>
        <mxCell id="sn0zGG2LwJoGhGM5-Vj4-15" style="edgeStyle=orthogonalEdgeStyle;rounded=0;orthogonalLoop=1;jettySize=auto;html=1;entryX=0;entryY=0.5;entryDx=0;entryDy=0;entryPerimeter=0;" parent="1" source="sn0zGG2LwJoGhGM5-Vj4-9" target="sn0zGG2LwJoGhGM5-Vj4-17" edge="1">
          <mxGeometry relative="1" as="geometry">
            <mxPoint x="319" y="557" as="targetPoint" />
          </mxGeometry>
        </mxCell>
        <mxCell id="sn0zGG2LwJoGhGM5-Vj4-16" value="NO" style="edgeLabel;html=1;align=center;verticalAlign=middle;resizable=0;points=[];rotation=0;" parent="sn0zGG2LwJoGhGM5-Vj4-15" vertex="1" connectable="0">
          <mxGeometry x="-0.1879" relative="1" as="geometry">
            <mxPoint y="10" as="offset" />
          </mxGeometry>
        </mxCell>
        <mxCell id="sn0zGG2LwJoGhGM5-Vj4-9" value="isSuccess" style="rhombus;whiteSpace=wrap;html=1;" parent="1" vertex="1">
          <mxGeometry x="119" y="517" width="160" height="80" as="geometry" />
        </mxCell>
        <mxCell id="sn0zGG2LwJoGhGM5-Vj4-11" value="&lt;div style=&quot;&quot;&gt;&lt;pre style=&quot;&quot;&gt;&lt;div style=&quot;&quot;&gt;&lt;pre style=&quot;&quot;&gt;&lt;font face=&quot;Helvetica&quot;&gt;&lt;span style=&quot;white-space: normal;&quot;&gt;SuccessScenario()&lt;/span&gt;&lt;/font&gt;&lt;/pre&gt;&lt;/div&gt;&lt;/pre&gt;&lt;/div&gt;" style="rounded=0;whiteSpace=wrap;html=1;labelBackgroundColor=none;" parent="1" vertex="1">
          <mxGeometry x="119" y="639" width="160" height="80" as="geometry" />
        </mxCell>
        <mxCell id="sn0zGG2LwJoGhGM5-Vj4-19" style="edgeStyle=orthogonalEdgeStyle;rounded=0;orthogonalLoop=1;jettySize=auto;html=1;entryX=1;entryY=0.5;entryDx=0;entryDy=0;" parent="1" source="sn0zGG2LwJoGhGM5-Vj4-17" target="sn0zGG2LwJoGhGM5-Vj4-26" edge="1">
          <mxGeometry relative="1" as="geometry">
            <mxPoint x="519" y="557" as="targetPoint" />
            <Array as="points">
              <mxPoint x="709" y="557" />
              <mxPoint x="709" y="957" />
            </Array>
          </mxGeometry>
        </mxCell>
        <mxCell id="sn0zGG2LwJoGhGM5-Vj4-20" value="NO" style="edgeLabel;html=1;align=center;verticalAlign=middle;resizable=0;points=[];" parent="sn0zGG2LwJoGhGM5-Vj4-19" vertex="1" connectable="0">
          <mxGeometry x="0.019" y="-2" relative="1" as="geometry">
            <mxPoint x="-68" y="-95" as="offset" />
          </mxGeometry>
        </mxCell>
        <mxCell id="sn0zGG2LwJoGhGM5-Vj4-23" style="edgeStyle=orthogonalEdgeStyle;rounded=0;orthogonalLoop=1;jettySize=auto;html=1;entryX=0.5;entryY=0;entryDx=0;entryDy=0;" parent="1" source="sn0zGG2LwJoGhGM5-Vj4-17" target="sn0zGG2LwJoGhGM5-Vj4-25" edge="1">
          <mxGeometry relative="1" as="geometry">
            <mxPoint x="399" y="637" as="targetPoint" />
          </mxGeometry>
        </mxCell>
        <mxCell id="sn0zGG2LwJoGhGM5-Vj4-24" value="Yes" style="edgeLabel;html=1;align=center;verticalAlign=middle;resizable=0;points=[];" parent="sn0zGG2LwJoGhGM5-Vj4-23" vertex="1" connectable="0">
          <mxGeometry x="-0.1793" relative="1" as="geometry">
            <mxPoint x="20" as="offset" />
          </mxGeometry>
        </mxCell>
        <mxCell id="sn0zGG2LwJoGhGM5-Vj4-17" value="isDestroy" style="rhombus;whiteSpace=wrap;html=1;" parent="1" vertex="1">
          <mxGeometry x="319" y="517" width="160" height="80" as="geometry" />
        </mxCell>
        <mxCell id="sn0zGG2LwJoGhGM5-Vj4-29" style="edgeStyle=orthogonalEdgeStyle;rounded=0;orthogonalLoop=1;jettySize=auto;html=1;entryX=0;entryY=0.5;entryDx=0;entryDy=0;exitX=0.5;exitY=1;exitDx=0;exitDy=0;" parent="1" source="sn0zGG2LwJoGhGM5-Vj4-25" target="sn0zGG2LwJoGhGM5-Vj4-26" edge="1">
          <mxGeometry relative="1" as="geometry">
            <mxPoint x="414" y="780" as="sourcePoint" />
            <mxPoint x="454" y="1064" as="targetPoint" />
          </mxGeometry>
        </mxCell>
        <mxCell id="sn0zGG2LwJoGhGM5-Vj4-30" value="Yes" style="edgeLabel;html=1;align=center;verticalAlign=middle;resizable=0;points=[];" parent="sn0zGG2LwJoGhGM5-Vj4-29" vertex="1" connectable="0">
          <mxGeometry x="0.2143" relative="1" as="geometry">
            <mxPoint x="20" y="-5" as="offset" />
          </mxGeometry>
        </mxCell>
        <mxCell id="sn0zGG2LwJoGhGM5-Vj4-32" style="edgeStyle=orthogonalEdgeStyle;rounded=0;orthogonalLoop=1;jettySize=auto;html=1;" parent="1" source="sn0zGG2LwJoGhGM5-Vj4-25" edge="1">
          <mxGeometry relative="1" as="geometry">
            <mxPoint x="519" y="677" as="targetPoint" />
          </mxGeometry>
        </mxCell>
        <mxCell id="sn0zGG2LwJoGhGM5-Vj4-34" value="No" style="edgeLabel;html=1;align=center;verticalAlign=middle;resizable=0;points=[];" parent="sn0zGG2LwJoGhGM5-Vj4-32" vertex="1" connectable="0">
          <mxGeometry x="-0.2429" y="3" relative="1" as="geometry">
            <mxPoint y="13" as="offset" />
          </mxGeometry>
        </mxCell>
        <mxCell id="sn0zGG2LwJoGhGM5-Vj4-25" value="isExistProtectScroll" style="rhombus;whiteSpace=wrap;html=1;" parent="1" vertex="1">
          <mxGeometry x="319" y="637" width="160" height="80" as="geometry" />
        </mxCell>
        <mxCell id="sn0zGG2LwJoGhGM5-Vj4-26" value="&lt;div style=&quot;&quot;&gt;&lt;pre style=&quot;&quot;&gt;&lt;div style=&quot;&quot;&gt;&lt;pre style=&quot;&quot;&gt;&lt;font face=&quot;Helvetica&quot;&gt;&lt;span style=&quot;white-space: normal;&quot;&gt;FailScenario()&lt;/span&gt;&lt;/font&gt;&lt;/pre&gt;&lt;/div&gt;&lt;/pre&gt;&lt;/div&gt;" style="rounded=0;whiteSpace=wrap;html=1;labelBackgroundColor=none;" parent="1" vertex="1">
          <mxGeometry x="519" y="921" width="160" height="80" as="geometry" />
        </mxCell>
        <mxCell id="sn0zGG2LwJoGhGM5-Vj4-33" value="Destroy Stuff" style="ellipse;whiteSpace=wrap;html=1;" parent="1" vertex="1">
          <mxGeometry x="519" y="637" width="120" height="80" as="geometry" />
        </mxCell>
      </root>
    </mxGraphModel>
  </diagram>
</mxfile>
